<svg width="1248px" height="1248px" viewBox="0 0 1248 1248" version="1.1" xmlns="http://www.w3.org/2000/svg" xmlns:xlink="http://www.w3.org/1999/xlink">
    <rect id="Rectangle" fill="#000000" x="0" y="0" width="1248" height="1248"></rect>
    <g id="Group-8" transform="translate(224, 203)">
        <g id="Group-6">
            <polygon id="Triangle" fill="#FFFFFF" points="400 0 800 800 0 800"></polygon>
            <polygon id="Triangle-Copy" fill="#000000" points="400 601 500 801 300 801"></polygon>
        </g>
        <g id="NS" transform="translate(314.1535, 541.9058) rotate(-20) translate(-314.1535, -541.9058)translate(139.3285, 395.4308)" fill="#000000" fill-rule="nonzero" stroke="#000000" stroke-width="10">
            <path d="M183.05,-5 C187.8,-5 192.187968,-2.83309951 196.035534,1.01446609 C199.986138,5.4459084 201.7,9.70057471 201.7,14.35 C201.7,16.6862205 200.648375,21.3755705 198.696828,28.0108316 C184.811795,71.7524492 178.25,119.550216 178.25,171.5 C178.25,179.091641 180.354464,197.723107 185.185036,227.396622 C185.96403,232.84287 186.3,235.518153 186.3,235.9 C186.3,242.447122 184.40735,247.083064 181.2696,250.220814 C178.074202,253.416213 173.379389,255.25 166.95,255.25 C163.882701,255.25 160.318826,254.246709 155.982272,251.005947 C152.769376,250.002007 148.697653,247.118721 143.464466,241.885534 C142.051586,240.472654 132.50496,229.531955 114.488312,208.336434 C93.3921433,184.075332 79.6835661,167.8945 73.3494389,159.452004 C62.9332253,146.28454 53.5761473,132.482467 45.278541,118.380644 C38.2347548,161.403594 34.4469642,196.765566 33.4952161,224.25 L34.4938553,224.25 C37.0077424,228.709276 38.95,233.029557 38.95,238 C38.95,246.971127 36.4944507,262.049385 31.469206,283.586148 C30.2759722,288.361639 28.2663041,291.778445 25.6367234,294.098663 C22.8198382,296.58415 19.2291994,297.95 14.7,297.95 C10.0392973,297.95 5.70623532,295.898253 1.44522859,291.667022 C-3.29839919,287.354785 -5,282.989076 -5,278.25 L-5,248.85 C-5,199.978647 2.59954769,136.207903 17.8400476,57.8986342 C17.0479638,56.1215327 16.7,54.1512728 16.7,52.15 C16.7,48.0625 18.5458723,43.3330599 24.1144661,37.7644661 C29.779231,32.565363 34.4644902,30.35 38.5,30.35 C44.1285714,30.35 48.7927249,32.2716571 52.5355339,36.0144661 C56.2783429,39.7572751 58.2,44.4214286 58.2,50.05 C58.2,51.3455064 57.8605212,52.8717837 57.2816938,54.8976797 C57.2023491,55.1753863 57.1188342,55.4672652 57.0329129,55.7788353 C68.9892468,88.5417443 97.4574648,130.33856 141.704386,181.255614 C141.121071,170.843293 140.95,162.614727 140.95,156.45 C140.95,136.293835 143.061709,111.539727 147.658727,81.8335921 C152.284588,49.4720644 158.02084,25.3023152 164.778612,8.94068088 C166.565699,4.49381577 168.985167,1.12381055 171.88283,-1.17946043 C175.013131,-3.66764796 178.728324,-5 183.05,-5 Z" id="Path"></path>
            <path d="M330.05,4.1 C335.908904,4.1 341.791451,6.13504833 346.823501,9.48974853 C351.899275,13.9875357 354.65,19.3772819 354.65,26.6 C354.65,31.8655609 353.367305,36.0355978 351.093667,39.218691 C348.702493,42.5663346 345.17677,44.9471896 340.362678,46.1507125 C321.929235,50.2488058 304.984394,57.7159051 289.052974,68.2238634 C270.831284,80.16224 260.85,91.8769939 260.85,104.65 C260.85,108.211212 263.811199,111.84546 268.505367,115.875358 C274.425589,120.957813 283.296378,126.333405 295.109525,131.990404 C311.165818,140.017739 322.741899,147.336403 329.638723,153.870237 C341.202237,165.047947 346.95,178.500683 346.95,194.25 C346.95,216.446457 335.890891,235.41108 313.987177,250.517198 C294.536203,264.089821 273.973238,271 252.7,271 C240.908244,271 232.181075,269.181613 226.346044,265.91143 C222.84623,263.949996 220.271986,261.46025 218.532278,258.524473 C216.776571,255.561697 215.85,252.113821 215.85,248.15 C215.85,242.676709 217.667091,238.115357 221.208816,234.425511 C224.646779,229.70364 229.060047,227.4 234.85,227.4 C237.187467,227.4 240.702302,228.107584 245.774298,229.278044 C249.258993,230.224382 251.952013,230.55 253.75,230.55 C265.209167,230.55 276.9775,227.221676 289.082808,220.350528 C301.385511,213.133643 308.25,204.285856 308.25,193.9 C308.25,190.054741 305.196445,186.195164 300.343937,182.010433 C294.214036,176.724096 285.042511,171.224527 272.963572,165.522036 C256.511145,158.20116 245.245272,151.157561 239.380951,145.30475 C227.927428,134.565111 222.15,121.165974 222.15,104.3 C222.15,84.4914248 231.609629,65.6602205 251.866777,48.0262406 C265.579098,35.3976655 282.694198,25.1288644 303.584609,16.6142946 C309.062541,8.44199187 317.774184,4.1 330.05,4.1 Z" id="Path"></path>
        </g>
    </g>
</svg>
